:version 1.10
:name ASF
:units
  mass 1
  length 1
  angle deg
:documentation
  ASF file generated by Kaydara
:root
  axis xyz
  order  tx ty tz rx ry rz
  position 0 0 0
  orientation 0 0 0
:bonedata
  begin
    id 1
    name RightUpLegDummy
    direction -0.718183 -0.695806 0.00816078
    length 4.904
    axis 0 0 0 xyz
  end
  begin
    id 2
    name RightUpLeg
    direction 3.53373e-006 -0.995788 0.0916898
    length 17.4976
    axis -3.49089 -0.000906625 0.000286804 xyz
    dof rx ry rz
  end
  begin
    id 3
    name RightLeg
    direction 0.00371092 -0.995096 -0.0988419
    length 16.5821
    axis 3.68512 0.0193738 -0.131023 xyz
    dof rx ry rz
  end
  begin
    id 4
    name RightFoot
    direction 0.00079151 -0.46099 0.887405
    length 3.77069
    axis 4.81691e-005 -0.120479 -0.188788 xyz
    dof rx ry rz
  end
  begin
    id 5
    name RightToes
    direction 0 0 0
    length 0
    axis 0 0 0 xyz
    dof rx ry rz
  end
  begin
    id 6
    name SpineDummy
    direction 8.3039e-015 1 4.57515e-016
    length 4.6813
    axis 0 0 0 xyz
  end
  begin
    id 7
    name Spine
    direction -3.15643e-008 0.999988 0.00495137
    length 10.1015
    axis -0.001389 0.000121418 2.40972e-006 xyz
    dof rx ry rz
  end
  begin
    id 8
    name Spine1
    direction 0 0 0
    length 0
    axis -0.001389 0.000121451 1.30017e-006 xyz
    dof rx ry rz
  end
  begin
    id 9
    name HEadDummy
    direction -1.99912e-008 0.999999 0.00127422
    length 3.43865
    axis -0.001389 0.000121451 1.30017e-006 xyz
  end
  begin
    id 10
    name HEad
    direction 0 0 0
    length 0
    axis 0 0 0 xyz
    dof rx ry rz
  end
  begin
    id 11
    name LeftShoulder1Dummy
    direction 0.998891 -0.0402509 -0.0244456
    length 3.5433
    axis -0.001389 0.000121451 1.30017e-006 xyz
  end
  begin
    id 12
    name LeftShoulder1
    direction 0.99951 -0.000327763 0.0313091
    length 4.05031
    axis -0.001389 0.000121451 1.30017e-006 xyz
    dof rx ry rz
  end
  begin
    id 13
    name LeftArm
    direction 0.998561 -0.00100056 -0.0536182
    length 10.3537
    axis -23.1894 0.134784 0.967509 xyz
    dof rx ry rz
  end
  begin
    id 14
    name LeftForeArm
    direction 0.998903 0.00866432 0.046012
    length 8.70632
    axis -9.91835 -0.06569 -0.177794 xyz
    dof rx ry rz
  end
  begin
    id 15
    name LeftHand
    direction 0 0 0
    length 0
    axis 0 0 0 xyz
    dof rx ry rz
  end
  begin
    id 16
    name RightShoulderDummy
    direction -0.998891 -0.0402509 -0.0244414
    length 3.5433
    axis -0.001389 0.000121451 1.30017e-006 xyz
  end
  begin
    id 17
    name RightShoulder
    direction -0.99951 -0.000327807 0.0313133
    length 4.05031
    axis 0.215806 0.000203643 -0.0068026 xyz
    dof rx ry rz
  end
  begin
    id 18
    name RightArm
    direction -0.998573 -0.000999564 -0.053403
    length 10.3947
    axis -23.2009 -0.134239 -0.964101 xyz
    dof rx ry rz
  end
  begin
    id 19
    name RightForeArm
    direction -0.998898 0.00868028 0.0461306
    length 8.68355
    axis -9.92322 0.0658061 0.178868 xyz
    dof rx ry rz
  end
  begin
    id 20
    name RightHand
    direction 0 0 0
    length 0
    axis 0 0 0 xyz
    dof rx ry rz
  end
  begin
    id 21
    name LeftUpLegDummy
    direction 0.718183 -0.695806 0.00816078
    length 4.904
    axis 0 0 0 xyz
  end
  begin
    id 22
    name LeftUpLeg
    direction -6.81752e-006 -0.995793 0.0916337
    length 17.4976
    axis -3.48766 0.00143442 -0.000524262 xyz
    dof rx ry rz
  end
  begin
    id 23
    name LeftLeg
    direction -0.00601358 -0.995091 -0.0987824
    length 16.5821
    axis 3.68178 -0.00654042 -0.000285133 xyz
    dof rx ry rz
  end
  begin
    id 24
    name LeftFoot
    direction -0.00417578 -0.460984 0.887399
    length 3.77069
    axis 1.87233e-006 4.66016e-005 -8.6538e-006 xyz
    dof rx ry rz
  end
  begin
    id 25
    name LeftToes
    direction 0 0 0
    length 0
    axis 0 0 0 xyz
    dof rx ry rz
  end
:hierarchy
  begin
    root RightUpLegDummy SpineDummy LeftUpLegDummy
    RightUpLegDummy RightUpLeg
    RightUpLeg RightLeg
    RightLeg RightFoot
    RightFoot RightToes
    SpineDummy Spine
    Spine Spine1
    Spine1 HEadDummy LeftShoulder1Dummy RightShoulderDummy
    HEadDummy HEad
    LeftShoulder1Dummy LeftShoulder1
    LeftShoulder1 LeftArm
    LeftArm LeftForeArm
    LeftForeArm LeftHand
    RightShoulderDummy RightShoulder
    RightShoulder RightArm
    RightArm RightForeArm
    RightForeArm RightHand
    LeftUpLegDummy LeftUpLeg
    LeftUpLeg LeftLeg
    LeftLeg LeftFoot
    LeftFoot LeftToes
  end

:SAMPLES-PER-SECOND 30
:FULLY-SPECIFIED
:DEGREES
110
root  -29.8409 38.7267 2.4331 -1.0817 -74.9906 -2.14325
RightUpLeg  -28.2827 -25.8585 7.34791
RightLeg  21.8695 -1.56504 -0.892944
RightFoot  -4.81655 -0.305774 5.14079
RightToes  0.000481921 0.542163 -0.142578
Spine  14.6212 -4.19816 -17.8788
Spine1  -5.31376 -9.53229 23.4205
HEad  -16.1682 -0.492557 14.8232
LeftShoulder1  4.36039 -8.3562 -30.7006
LeftArm  -39.5756 -71.8573 -12.9408
LeftForeArm  44.4144 -55.3018 -12.533
LeftHand  -0.25398 0.0180481 5.50724
RightShoulder  3.09468 6.63703 24.3607
RightArm  -14.1468 -58.3839 17.4269
RightForeArm  -33.0268 5.75048 3.02037
RightHand  -3.74872 9.97708 -28.4246
LeftUpLeg  19.8422 13.1649 4.36148
LeftLeg  14.8839 7.10247 -1.26374
LeftFoot  -21.2017 -0.667355 -9.23022
LeftToes  1.06245e-005 4.65868e-005 -8.65515e-006
111
root  -31.6532 38.4667 2.82157 2.93124 -77.2538 -5.63742
RightUpLeg  -27.9777 -23.0165 9.42489
RightLeg  24.4723 -2.45158 -1.47141
RightFoot  -2.85081 0.231804 -3.57285
RightToes  0.000481921 0.542163 -0.142578
Spine  12.3769 -4.78806 -14.4631
Spine1  -5.48236 -9.22245 22.0983
HEad  -14.1516 -0.602609 13.6549
LeftShoulder1  4.04764 -7.73981 -29.9294
LeftArm  -36.7507 -63.966 -20.5667
LeftForeArm  53.6621 -65.7507 -19.5404
LeftHand  -0.25398 0.0180481 5.50724
RightShoulder  2.76678 6.20854 22.2209
RightArm  -20.5489 -58.2846 23.086
RightForeArm  -46.9623 9.6205 3.50577
RightHand  -4.60771 12.6336 -29.4866
LeftUpLeg  19.969 19.3576 7.59254
LeftLeg  20.5543 0.393668 0.537965
LeftFoot  -19.005 -0.816636 -14.0084
LeftToes  1.06245e-005 4.65868e-005 -8.65515e-006
112
root  -33.3543 38.0139 3.13405 9.99371 -78.131 -12.8784
RightUpLeg  -28.712 -19.1536 10.6219
RightLeg  31.2088 -5.12165 -3.6133
RightFoot  -4.09015 0.646031 -10.6882
RightToes  0.000481921 0.542163 -0.142578
Spine  11.4306 -5.23812 -10.7414
Spine1  -5.07185 -9.12781 21.3125
HEad  -14.2175 -0.0855217 12.4705
LeftShoulder1  4.46309 -8.47803 -31.1676
LeftArm  -36.5904 -55.3861 -21.9371
LeftForeArm  69.4978 -74.8757 -33.5758
LeftHand  -0.25398 0.0180481 5.50724
RightShoulder  2.54213 5.46418 22.0936
RightArm  -24.2964 -55.1195 27.2206
RightForeArm  -50.7198 12.2831 4.21342
RightHand  -3.67187 10.8859 -26.1892
LeftUpLeg  15.3486 15.0605 7.67952
LeftLeg  33.3383 2.94265 2.4721
LeftFoot  -13.686 -0.257275 -15.248
LeftToes  1.06245e-005 4.65868e-005 -8.65515e-006
113
root  -34.8223 37.4539 3.3778 18.0563 -78.0762 -22.1139
RightUpLeg  -28.7611 -16.6911 11.5909
RightLeg  38.3966 -6.96333 -6.14072
RightFoot  -7.73372 0.345077 -12.2202
RightToes  0.000481921 0.542163 -0.142578
Spine  12.1027 -5.44237 -7.52029
Spine1  -4.02223 -9.15364 21.5752
HEad  -15.8405 1.07244 11.306
LeftShoulder1  5.2397 -9.74159 -33.5076
LeftArm  -35.8624 -46.6541 -21.8952
LeftForeArm  96.5976 -80.3201 -60.6201
LeftHand  -0.25398 0.0180481 5.50724
RightShoulder  2.62726 5.07684 24.459
RightArm  -25.5526 -48.0806 28.4271
RightForeArm  -48.667 12.1021 4.47525
RightHand  -3.32024 10.4767 -24.3891
LeftUpLeg  9.18302 11.0853 8.77432
LeftLeg  49.1511 3.46122 4.72385
LeftFoot  -7.40861 0.429461 -11.3594
LeftToes  1.06245e-005 4.65868e-005 -8.65515e-006
114
root  -36.1331 37.0668 3.58375 23.5889 -78.2896 -29.0161
RightUpLeg  -27.2025 -16.1744 12.0552
RightLeg  42.8644 -7.15138 -7.3492
RightFoot  -11.7105 -0.115585 -11.1859
RightToes  0.000481921 0.542163 -0.142578
Spine  13.0553 -5.26386 -5.40752
Spine1  -2.98005 -8.87019 21.817
HEad  -17.1706 2.20894 9.862
LeftShoulder1  5.96143 -10.7013 -35.8827
LeftArm  -32.4741 -37.5451 -23.1009
LeftForeArm  123.553 -81.5565 -87.277
LeftHand  -0.25398 0.0180481 5.50724
RightShoulder  2.92265 5.24433 27.3728
RightArm  -26.8131 -38.9464 29.6192
RightForeArm  -48.4556 10.4904 4.38269
RightHand  -4.02328 12.5686 -26.0276
LeftUpLeg  2.97854 8.16424 9.42246
LeftLeg  63.0878 3.43362 8.0377
LeftFoot  -4.50962 0.420736 -6.39029
LeftToes  1.06245e-005 4.65868e-005 -8.65515e-006
115
root  -37.4387 37.1084 3.7956 27.8762 -79.9079 -33.8984
RightUpLeg  -24.3916 -15.866 11.5868
RightLeg  43.8083 -6.48816 -6.94184
RightFoot  -14.3505 -0.382835 -10.809
RightToes  0.000481921 0.542163 -0.142578
Spine  12.6844 -4.58123 -3.6712
Spine1  -2.17408 -7.76554 20.3672
HEad  -17.3548 2.90785 8.13407
LeftShoulder1  6.65985 -11.2823 -38.8481
LeftArm  -26.6111 -27.3732 -23.9301
LeftForeArm  125.87 -81.6252 -87.5624
LeftHand  -0.25398 0.0180481 5.50724
RightShoulder  3.26088 5.64455 29.6705
RightArm  -29.1279 -29.9971 32.2446
RightForeArm  -51.3831 10.0734 4.35297
RightHand  -4.36246 13.418 -26.9094
LeftUpLeg  -2.9658 6.63184 8.89551
LeftLeg  72.2494 3.23179 12.0796
LeftFoot  -4.21647 0.2692 -3.89804
LeftToes  1.06245e-005 4.65868e-005 -8.65515e-006
116
root  -38.7668 37.6283 4.02855 34.3467 -82.9149 -40.3119
RightUpLeg  -20.5525 -14.5629 10.0927
RightLeg  41.592 -5.2054 -5.26002
RightFoot  -14.9998 -0.447872 -10.8307
RightToes  0.000481921 0.542163 -0.142578
Spine  11.1509 -3.42859 -1.46181
Spine1  -1.26928 -5.7966 16.9469
HEad  -17.3052 3.28142 6.40482
LeftShoulder1  7.36679 -11.5885 -42.4029
LeftArm  -19.4416 -15.9661 -23.794
LeftForeArm  96.6681 -80.0594 -57.6892
LeftHand  -0.25398 0.0180481 5.50724
RightShoulder  3.73375 6.31377 32.0688
RightArm  -30.101 -22.1583 34.5406
RightForeArm  -52.9208 11.9045 5.01577
RightHand  -3.74729 12.0599 -24.9821
LeftUpLeg  -8.12496 6.00507 7.42311
LeftLeg  75.1973 2.8201 13.2768
LeftFoot  -3.82798 0.248815 -3.43885
LeftToes  1.06245e-005 4.65868e-005 -8.65515e-006
117
root  -40.0785 38.5903 4.25427 44.7021 -86.5554 -50.645
RightUpLeg  -15.1569 -12.951 7.25701
RightLeg  35.9294 -3.60762 -3.12398
RightFoot  -13.7665 -0.310041 -10.1922
RightToes  0.000481921 0.542163 -0.142578
Spine  9.67437 -1.88873 0.335995
Spine1  -0.385432 -3.36907 12.946
HEad  -17.7168 3.13288 4.80498
LeftShoulder1  7.92875 -11.7535 -45.295
LeftArm  -12.3824 -5.54484 -24.2337
LeftForeArm  60.0275 -70.2241 -25.9129
LeftHand  -0.25398 0.0180481 5.50724
RightShoulder  4.40597 7.31024 34.7791
RightArm  -26.2047 -15.4398 34.9759
RightForeArm  -50.136 15.1658 6.43136
RightHand  -3.15663 11.1165 -22.4118
LeftUpLeg  -11.9078 5.14443 4.89188
LeftLeg  72.3943 2.92978 11.3576
LeftFoot  -2.93589 0.250743 -3.17444
LeftToes  1.06245e-005 4.65868e-005 -8.65515e-006
